<svg xmlns="http://www.w3.org/2000/svg" xmlns:xlink="http://www.w3.org/1999/xlink" width="209" height="48" viewBox="0 0 209 48">
    <defs>
        <radialGradient id="prefix__b" cx="60.385%" cy="47.582%" r="68.099%" fx="60.385%" fy="47.582%" gradientTransform="matrix(.99988 .01023 -.0288 1.23802 .014 -.12)">
            <stop offset="0%" stop-color="#7DC242"/>
            <stop offset="11.01%" stop-color="#71BA42"/>
            <stop offset="30.77%" stop-color="#52A441"/>
            <stop offset="56.79%" stop-color="#208040"/>
            <stop offset="71.91%" stop-color="#00693F"/>
            <stop offset="100%"/>
        </radialGradient>
        <path id="prefix__a" d="M24.58 26.424c-.265.984-.794 1.8-1.179 2.28-1.515-5.664-4.209-8.592-5.507-9.768 1.106-.024 3.03.312 5.17 2.448 1.516 1.56 2.02 3.24 1.516 5.04m-7.48-6.912c-.096.528-.192 1.464-.192 2.592v.504c0 1.896-.024 6.96 1.803 8.784.457.456.986.672 1.612.672h.048c.072 0 1.804.24 2.237-2.4-.217-.864-1.973-7.32-5.508-10.152m-2.718-.072c-.938-.288-4.545-1.008-9.957 2.496C1.708 23.712.313 25.728.457 27.744c.12 1.824 1.515 3.576 3.752 4.728.89-.528 6.494-4.344 10.173-13.032m.674 1.08c-1.804 4.488-4.305 7.776-6.11 9.744-1.73 1.896-3.174 3-3.679 3.36.24.792 1.275 3.744 3.608 3.744 2.717 0 4.377-3.792 4.4-3.816v-.024c.145-.288 3.224-7.08 1.78-13.008m9.597-11.04c-.193-.912-.698-1.536-1.058-1.872-.169.648-.553 1.776-1.203 3.144-.866 1.776-2.429 4.296-5.002 6.456 1.226.24 3.8.216 6.108-3.288 1.035-1.656 1.444-3.144 1.155-4.44m-3.944-6.048c-.626-.048-1.179.144-1.66.576-1.996 1.752-2.26 6.864-2.357 8.784l-.024.36c-.072 1.176.024 2.592.096 3.312 4.426-3.648 5.94-9 6.11-9.72-.241-3.048-2.093-3.312-2.165-3.312m-5.58 9.648C15.008 6 12.675 1.056 9.09.192 8.321 0 7.6.096 6.975.48c-1.227.768-1.804 2.424-1.997 3.048 4.041 2.496 6.59 5.808 8.033 8.136.938 1.536 1.54 2.88 1.852 3.696.289-1.2.265-2.256.265-2.28M4.016 4.584C1.587 5.592.216 7.272.192 9.36c-.024 1.272.457 2.544 1.371 3.744.962 1.248 2.333 2.28 3.969 2.976 5.122 2.184 8.009.84 8.706.432C11.063 8.664 4.93 5.088 4.016 4.584"/>
    </defs>
    <g fill="none" fill-rule="evenodd" transform="translate(0 .24)">
        <path fill="#002E6D" fill-rule="nonzero" d="M161.067 8.304c3.632 0 6.205 2.232 6.205 5.52 0 1.944-.914 3.504-2.357 4.224l.169.072c1.924.768 3.126 2.592 3.15 4.992 0 4.2-2.645 6.336-7.624 6.336h-9.957c-.216 0-.409-.192-.409-.408V8.712c0-.216.193-.408.41-.408zm-21.886 0c3.632 0 6.205 2.232 6.205 5.52 0 1.944-.914 3.504-2.357 4.224l.168.072c1.949.768 3.151 2.592 3.151 4.992 0 4.2-2.645 6.336-7.624 6.336h-9.957c-.216 0-.409-.192-.409-.408V8.712c0-.216.193-.408.41-.408zm32.901.024c.145 0 .289.072.361.216l6.95 13.2c.169.288.578.288.722 0l6.95-13.2c.049-.144.193-.216.338-.216h3.39c.217 0 .361.24.265.432l-10.943 20.448c-.168.288-.577.288-.721 0L168.45 8.76c-.12-.192.024-.432.264-.432zm-11.64 11.616h-6.326c-.216 0-.408.192-.408.408v5.616c0 .24.192.408.408.408h6.278c3.03 0 4.329-1.128 4.305-3.192 0-2.352-1.275-3.192-4.257-3.24zm-21.862 0h-6.326c-.24 0-.408.192-.408.408v5.616c0 .24.192.408.408.408h6.278c3.006 0 4.329-1.128 4.305-3.192 0-2.352-1.275-3.192-4.257-3.24zm58.924-14.448c.168-.288.577-.288.721 0l10.943 20.448c.12.192-.024.432-.264.432h-3.367c-.145 0-.289-.096-.361-.216l-6.95-13.2c-.169-.288-.578-.288-.722 0l-6.95 13.2c-.073.12-.217.216-.338.216h-3.39c-.217 0-.385-.24-.265-.432zm-37.182 5.88h-6.181c-.217 0-.41.192-.41.384v4.728c0 .216.193.408.41.408h6.18c2.285-.024 3.44-1.056 3.44-3.096 0-1.8-1.227-2.424-3.44-2.424zm-21.863 0h-6.18c-.241 0-.41.192-.41.384v4.728c0 .216.193.408.41.408h6.18c2.285-.024 3.44-1.056 3.44-3.096 0-1.8-1.227-2.424-3.44-2.424z"/>
        <path fill="#231F20" fill-rule="nonzero" d="M40.766 6.984c3.126 0 4.257.408 5.94.984l-.577 2.736c-1.732-.696-3.535-1.032-5.387-1.032-2.357 0-4.21.84-5.772 2.448-1.564 1.632-2.333 3.744-2.333 6.264 0 2.76.697 4.968 2.092 6.576 1.371 1.608 3.199 2.448 5.676 2.448 1.299 0 2.357-.168 3.247-.528v-5.424c0-.384 0-.72-.024-1.032h-2.886c-.048-.96-.169-1.968-.313-2.544l7.071.24c-.248.787-.285 1.723-.288 3.28v3.104c0 1.944.12 3.264.288 3.936-2.453 1.008-4.882 1.512-7.36 1.512-3.655 0-6.47-1.008-8.513-3.024-2.02-2.016-3.175-4.704-3.175-8.136 0-3.48 1.25-6.336 3.511-8.544 2.213-2.184 5.147-3.264 8.803-3.264zm15.176 6.72c4.136 0 6.06 1.392 6.06 5.664v6.576c0 1.2.049 2.664.29 3.528h-3.416l-.265-1.512c-1.202 1.248-2.67 1.92-4.425 1.896-2.573-.048-4.618-1.512-4.666-4.296-.096-4.92 5.003-6.456 9.043-5.232 0-2.208.145-4.512-2.79-4.512-1.611 0-3.27.312-4.69 1.056l.41-2.16c1.49-.672 2.813-1.008 4.449-1.008zm23.329 0c4.16 0 6.06 1.392 6.06 5.664v6.576c0 1.2.025 2.976.29 3.528l-.02-.049-3.42.001c-.157-.493-.23-1.383-.24-1.5v-.012c-1.203 1.224-2.694 1.92-4.45 1.896-2.573-.048-4.618-1.512-4.666-4.296-.096-4.92 5.027-6.456 9.043-5.232 0-2.208.145-4.512-2.79-4.512-1.01 0-2.044.144-3.006.408-.577.168-1.154.384-1.683.672l.408-2.16c1.492-.648 2.838-.984 4.474-.984zm29.775-3.576v3.96h3.92V16.2h-3.92v8.64c0 1.632.697 2.448 2.02 2.448.842 0 1.66-.192 2.55-.672l.288 2.016c-1.443.768-2.838 1.152-4.137 1.152-1.587 0-2.694-.48-3.415-1.44-.481-.648-.746-1.872-.746-3.6v-8.52h-2.38v-1.872l2.38-.288.265-3.696 3.175-.24zm8.682 3.696c1.66 0 1.491 1.584 1.491 3.336v8.661c.005 1.786.06 3.195.289 3.651h-3.993c.248-.453.283-1.399.288-3.035v-8.461c0-1.848-.24-2.688-.89-3.12 1.228-.648 2.286-1.032 2.815-1.032zm-45.215-.168c.288 0 .577.024.841.096l-.48 2.64c-.265-.024-.506-.024-.866-.024-1.083 0-2.189.576-3.247 1.776v7.728c0 2.256.096 3.336.192 3.6h-3.776c.048-.24.096-.528.12-.864.043-.63.048-1.444.048-2.313v-8.367c0-1.752-.288-2.712-.89-3.072 1.083-.576 2.117-1.008 2.767-1.008 1.154 0 1.37 1.056 1.37 2.232 1.059-1.608 2.381-2.424 3.92-2.424zm24.315 0c1.731 0 2.982.6 3.776 1.848.168.288.312.648.409 1.104.144.672.216 1.512.216 2.568v6.408c0 2.544.12 3.6.24 3.864H97.7l.025-.071c.09-.349.092-1.013.114-1.777v-8.328c0-2.064-.625-3.024-2.165-3.024-1.178 0-2.549.84-3.655 1.8v7.584c0 .864.024 1.68.048 2.328.024.648.072 1.176.144 1.488h-3.776c.135-.585.165-1.74.168-3.365v-8.179c0-1.92-.312-2.688-.89-3.072 1.347-.672 2.165-1.008 2.766-1.008 1.107 0 1.371.984 1.395 2.208 1.323-1.344 3.2-2.376 4.955-2.376zm-38.265 8.28c-3.295-.864-5.555.744-5.555 3.168 0 1.632.962 2.304 2.525 2.304 1.13 0 2.164-.456 3.03-1.152zm23.305 0c-3.295-.84-5.555.768-5.555 3.168 0 1.632.962 2.304 2.525 2.304 1.13 0 2.165-.456 3.03-1.152zM117.32 8.328c.577 0 1.058.168 1.443.6.409.36.601.84.601 1.44 0 .576-.192 1.032-.601 1.44-.409.432-.89.6-1.443.6-.601 0-1.082-.216-1.443-.6-.409-.408-.601-.888-.601-1.44 0-.192.024-.384.072-.552.096-.36.264-.648.529-.888.36-.408.842-.6 1.443-.6z"/>
        <path fill="#002E6D" fill-rule="nonzero" d="M199.5 47.52v-5.016c.625-.576 1.203-.936 1.876-.936.794 0 1.034.408 1.034 1.176v4.8h1.684v-5.016c.625-.576 1.178-.936 1.876-.936.793 0 1.034.408 1.034 1.176v4.8h1.683V42.36c0-1.296-.649-2.184-2.116-2.184-1.106 0-1.996.6-2.525 1.176-.193-.72-.77-1.176-1.997-1.176-1.13 0-1.972.576-2.5 1.176l-.145-1.032h-1.54v7.2h1.636zm-3.656 0v-7.248h-1.683v7.248h1.683zm-5.7 0v-4.608c.457-.768 1.25-1.296 2.357-1.296.12 0 .337 0 .433.024l-.144-1.536h-.072c-1.347 0-2.117.648-2.574 1.32h-.024l-.144-1.176h-1.54v7.272h1.708zm-3.68 0v-7.248h-1.683v7.248h1.684zm-4.449.096c.457 0 1.13-.072 1.323-.12l-.144-1.32c-.217.048-.457.12-.746.12-.697 0-1.01-.24-1.01-1.032v-3.672h1.876v-1.32h-1.876v-2.664l-1.684.24v2.424h-1.226v1.32h1.226v3.936c.024 1.584.722 2.088 2.261 2.088zm-8.947.024c1.083 0 1.973-.336 2.67-1.032l.144.936h1.515v-4.776c0-1.704-.817-2.616-2.693-2.616-1.684 0-2.718.624-3.488 1.32l.914 1.032c.674-.552 1.395-.96 2.333-.96.866 0 1.25.36 1.25 1.032v.216c-3.39.384-4.737 1.368-4.737 2.976.024 1.152.914 1.872 2.092 1.872zm.626-1.296c-.626 0-1.035-.312-1.035-.864 0-.72.746-1.224 3.103-1.56v1.608c-.53.504-1.227.816-2.068.816zm-5.075 1.176v-4.368l3.463-5.76h-1.755l-2.55 4.32-2.621-4.44-1.636.264 3.391 5.616v4.368h1.708z"/>
        <mask id="prefix__c" fill="#fff">
            <use xlink:href="#prefix__a"/>
        </mask>
        <use fill="#231F20" fill-rule="nonzero" xlink:href="#prefix__a"/>
        <path fill="url(#prefix__b)" fill-rule="nonzero" d="M0.144 -0.096L25.085 0.12 25.133 37.584 0.168 37.368z" mask="url(#prefix__c)"/>
    </g>
</svg>
